<?xml version="1.0" encoding="UTF-8" standalone="no"?>
<svg
   xmlns:dc="http://purl.org/dc/elements/1.1/"
   xmlns:cc="http://creativecommons.org/ns#"
   xmlns:rdf="http://www.w3.org/1999/02/22-rdf-syntax-ns#"
   xmlns:svg="http://www.w3.org/2000/svg"
   xmlns="http://www.w3.org/2000/svg"
   viewBox="0 0 1066.6667 800"
   height="800"
   width="1066.6667"
   xml:space="preserve"
   id="svg2"
   version="1.1"><metadata
     id="metadata8"><rdf:RDF><cc:Work
         rdf:about=""><dc:format>image/svg+xml</dc:format><dc:type
           rdf:resource="http://purl.org/dc/dcmitype/StillImage" /></cc:Work></rdf:RDF></metadata><defs
     id="defs6"><clipPath
       id="clipPath18"
       clipPathUnits="userSpaceOnUse"><path
         id="path16"
         d="M 0,600 H 800 V 0 H 0 Z" /></clipPath><clipPath
       id="clipPath30"
       clipPathUnits="userSpaceOnUse"><path
         id="path28"
         d="m 200.001,337.31 c -17.233,-7.3 -51.946,15.909 -51.946,15.909 v 0 c 0,0 31.116,-33.703 27.069,-47.103 v 0 c -4.048,-13.4 -44.827,-30.694 -44.827,-30.694 v 0 c 0,0 51.174,5.824 53.704,-8.204 v 0 c 2.528,-14.032 -3.951,-54.186 -3.951,-54.186 v 0 c 0,0 25.889,37.471 39.898,36.872 v 0 c 14.012,-0.598 39.902,-36.872 39.902,-36.872 v 0 c 0,0 -14.178,43.955 -3.951,54.186 v 0 c 10.224,10.229 53.705,8.204 53.705,8.204 v 0 c 0,0 -43.02,12.933 -44.827,30.694 v 0 c -1.811,17.761 27.07,47.103 27.07,47.103 v 0 c 0,0 -35.719,-23.04 -51.948,-15.909 v 0 c -16.232,7.131 -19.951,50.532 -19.951,50.532 v 0 c 0,0 -2.719,-43.23 -19.947,-50.532" /></clipPath><radialGradient
       id="radialGradient40"
       spreadMethod="pad"
       gradientTransform="matrix(89.254456,0,0,-89.254456,219.9502,300.4375)"
       gradientUnits="userSpaceOnUse"
       r="1"
       cy="0"
       cx="0"
       fy="0"
       fx="0"><stop
         id="stop36"
         offset="0"
         style="stop-opacity:1;stop-color:#fdbe10" /><stop
         id="stop38"
         offset="1"
         style="stop-opacity:1;stop-color:#f16422" /></radialGradient><clipPath
       id="clipPath50"
       clipPathUnits="userSpaceOnUse"><path
         id="path48"
         d="M 0,600 H 800 V 0 H 0 Z" /></clipPath></defs><g
     transform="matrix(1.3333333,0,0,-1.3333333,0,800)"
     id="g10"><g
       id="g12"><g
         clip-path="url(#clipPath18)"
         id="g14"><g
           transform="translate(219.9482,450.6006)"
           id="g20"><path
             id="path22"
             style="fill:#fdbe10;fill-opacity:1;fill-rule:nonzero;stroke:none"
             d="m 0,0 c 0,0 6.213,-72.485 33.318,-84.392 27.104,-11.905 86.753,26.569 86.753,26.569 0,0 -48.228,-49.006 -45.208,-78.665 3.021,-29.661 74.863,-51.262 74.863,-51.262 0,0 -72.61,3.382 -89.688,-13.703 -17.079,-17.084 6.597,-90.49 6.597,-90.49 0,0 -43.237,60.579 -66.635,61.578 -23.4,1.003 -66.633,-61.578 -66.633,-61.578 0,0 10.826,67.062 6.601,90.49 -4.229,23.431 -89.694,13.703 -89.694,13.703 0,0 68.108,28.882 74.865,51.262 6.757,22.378 -45.21,78.665 -45.21,78.665 0,0 57.978,-38.76 86.757,-26.569 C -4.54,-72.2 0,0 0,0" /></g></g></g><g
       id="g24"><g
         clip-path="url(#clipPath30)"
         id="g26"><g
           id="g32"><g
             id="g34"><path
               id="path42"
               style="fill:url(#radialGradient40);stroke:none"
               d="m 200.001,337.31 c -17.233,-7.3 -51.946,15.909 -51.946,15.909 v 0 c 0,0 31.116,-33.703 27.069,-47.103 v 0 c -4.048,-13.4 -44.827,-30.694 -44.827,-30.694 v 0 c 0,0 51.174,5.824 53.704,-8.204 v 0 c 2.528,-14.032 -3.951,-54.186 -3.951,-54.186 v 0 c 0,0 25.889,37.471 39.898,36.872 v 0 c 14.012,-0.598 39.902,-36.872 39.902,-36.872 v 0 c 0,0 -14.178,43.955 -3.951,54.186 v 0 c 10.224,10.229 53.705,8.204 53.705,8.204 v 0 c 0,0 -43.02,12.933 -44.827,30.694 v 0 c -1.811,17.761 27.07,47.103 27.07,47.103 v 0 c 0,0 -35.719,-23.04 -51.948,-15.909 v 0 c -16.232,7.131 -19.951,50.532 -19.951,50.532 v 0 c 0,0 -2.719,-43.23 -19.947,-50.532" /></g></g></g></g><g
       id="g44"><g
         clip-path="url(#clipPath50)"
         id="g46"><g
           transform="translate(407.4561,274.8086)"
           id="g52"><path
             id="path54"
             style="fill:#000000;fill-opacity:1;fill-rule:nonzero;stroke:none"
             d="m 0,0 c 3.747,-1.967 9.743,-3.935 15.833,-3.935 6.559,0 10.025,2.719 10.025,6.934 0,3.841 -2.999,6.185 -10.587,8.807 -10.494,3.747 -17.427,9.556 -17.427,18.833 0,10.773 9.089,18.925 23.891,18.925 7.216,0 12.369,-1.406 16.116,-3.186 l -3.186,-11.43 c -2.436,1.218 -7.026,2.997 -13.116,2.997 -6.184,0 -9.183,-2.903 -9.183,-6.09 0,-4.027 3.467,-5.809 11.712,-8.993 11.15,-4.124 16.303,-9.931 16.303,-18.924 0,-10.59 -8.057,-19.584 -25.392,-19.584 -7.213,0 -14.333,1.966 -17.894,3.934 z" /></g><g
           transform="translate(456.9297,291.3926)"
           id="g56"><path
             id="path58"
             style="fill:#000000;fill-opacity:1;fill-rule:nonzero;stroke:none"
             d="M 0,0 C 0,5.716 -0.189,10.495 -0.376,14.615 H 11.71 l 0.562,-6.276 h 0.281 c 1.968,2.999 6.09,7.308 13.868,7.308 5.996,0 10.587,-3.092 12.554,-7.871 h 0.186 c 1.78,2.436 3.749,4.311 5.997,5.622 2.53,1.406 5.342,2.249 8.715,2.249 8.807,0 15.459,-6.185 15.459,-19.865 v -26.98 H 55.464 v 24.827 c 0,6.652 -2.154,10.493 -6.744,10.493 -3.373,0 -5.622,-2.248 -6.653,-4.967 -0.282,-1.028 -0.469,-2.434 -0.469,-3.559 V -31.198 H 27.731 v 25.672 c 0,5.713 -2.06,9.648 -6.652,9.648 -3.653,0 -5.808,-2.81 -6.65,-5.059 -0.47,-1.124 -0.564,-2.436 -0.564,-3.655 V -31.198 H 0 Z" /></g><g
           transform="translate(561.8691,281.835)"
           id="g60"><path
             id="path62"
             style="fill:#000000;fill-opacity:1;fill-rule:nonzero;stroke:none"
             d="m 0,0 c -7.496,0 -13.304,-1.78 -13.304,-7.214 0,-3.653 2.435,-5.433 5.62,-5.433 3.467,0 6.466,2.341 7.403,5.247 C -0.094,-6.652 0,-5.808 0,-4.966 Z m 13.772,-10.587 c 0,-4.308 0.187,-8.525 0.749,-11.054 H 1.686 l -0.843,4.589 H 0.562 c -2.999,-3.654 -7.682,-5.621 -13.118,-5.621 -9.274,0 -14.802,6.746 -14.802,14.054 0,11.898 10.681,17.522 26.89,17.522 v 0.562 c 0,2.434 -1.312,5.901 -8.339,5.901 -4.685,0 -9.65,-1.593 -12.649,-3.374 l -2.623,9.091 c 3.185,1.779 9.463,4.122 17.802,4.122 15.272,0 20.049,-8.995 20.049,-19.768 z" /></g><g
           transform="translate(621.3672,261.3164)"
           id="g64"><path
             id="path66"
             style="fill:#000000;fill-opacity:1;fill-rule:nonzero;stroke:none"
             d="m 0,0 c -2.529,-1.216 -7.309,-2.154 -12.742,-2.154 -14.803,0 -24.266,9.087 -24.266,23.517 0,13.399 9.181,24.361 26.233,24.361 3.749,0 7.87,-0.657 10.869,-1.78 L -2.155,33.355 c -1.687,0.75 -4.217,1.407 -7.964,1.407 -7.495,0 -12.366,-5.34 -12.273,-12.837 0,-8.433 5.621,-12.928 12.554,-12.928 3.373,0 5.996,0.561 8.151,1.499 z" /></g><g
           transform="translate(643.4795,286.6143)"
           id="g68"><path
             id="path70"
             style="fill:#000000;fill-opacity:1;fill-rule:nonzero;stroke:none"
             d="m 0,0 h 0.188 c 1.031,1.967 2.155,3.841 3.278,5.526 l 9.276,13.868 H 29.888 L 13.492,0.845 32.23,-26.42 H 14.709 L 3.56,-7.588 0,-12.18 V -26.42 H -14.24 V 40.101 H 0 Z" /></g></g></g></g></svg>