<?xml version="1.0" encoding="UTF-8" standalone="no"?>
<svg
   xmlns:dc="http://purl.org/dc/elements/1.1/"
   xmlns:cc="http://creativecommons.org/ns#"
   xmlns:rdf="http://www.w3.org/1999/02/22-rdf-syntax-ns#"
   xmlns:svg="http://www.w3.org/2000/svg"
   xmlns="http://www.w3.org/2000/svg"
   xmlns:sodipodi="http://sodipodi.sourceforge.net/DTD/sodipodi-0.dtd"
   xmlns:inkscape="http://www.inkscape.org/namespaces/inkscape"
   viewBox="0 0 399.2693 389.25732"
   height="389.25732"
   width="399.26932"
   xml:space="preserve"
   id="svg2"
   version="1.1"
   inkscape:version="0.91 r13725"
   sodipodi:docname="smack-logo-plain.svg"><sodipodi:namedview
     pagecolor="#ffffff"
     bordercolor="#666666"
     borderopacity="1"
     objecttolerance="10"
     gridtolerance="10"
     guidetolerance="10"
     inkscape:pageopacity="0"
     inkscape:pageshadow="2"
     inkscape:window-width="834"
     inkscape:window-height="1044"
     id="namedview3432"
     showgrid="false"
     fit-margin-top="0"
     fit-margin-left="0"
     fit-margin-right="0"
     fit-margin-bottom="0"
     inkscape:zoom="0.65684805"
     inkscape:cx="238.37045"
     inkscape:cy="159.12321"
     inkscape:window-x="2520"
     inkscape:window-y="0"
     inkscape:window-maximized="0"
     inkscape:current-layer="svg2" /><metadata
     id="metadata8"><rdf:RDF><cc:Work
         rdf:about=""><dc:format>image/svg+xml</dc:format><dc:type
           rdf:resource="http://purl.org/dc/dcmitype/StillImage" /><dc:title></dc:title></cc:Work></rdf:RDF></metadata><defs
     id="defs6"><clipPath
       id="clipPath18"
       clipPathUnits="userSpaceOnUse"><path
         id="path16"
         d="M 0,600 800,600 800,0 0,0 Z"
         inkscape:connector-curvature="0" /></clipPath><clipPath
       id="clipPath30"
       clipPathUnits="userSpaceOnUse"><path
         id="path28"
         d="m 351.001,359.31 c -17.234,-7.3 -51.945,15.909 -51.945,15.909 l 0,0 c 0,0 31.115,-33.702 27.068,-47.102 l 0,0 c -4.048,-13.401 -44.827,-30.694 -44.827,-30.694 l 0,0 c 0,0 51.173,5.823 53.705,-8.205 l 0,0 c 2.528,-14.031 -3.951,-54.186 -3.951,-54.186 l 0,0 c 0,0 25.887,37.471 39.897,36.872 l 0,0 c 14.012,-0.597 39.902,-36.872 39.902,-36.872 l 0,0 c 0,0 -14.178,43.955 -3.952,54.186 l 0,0 c 10.225,10.229 53.706,8.205 53.706,8.205 l 0,0 c 0,0 -43.02,12.932 -44.827,30.694 l 0,0 c -1.81,17.759 27.07,47.102 27.07,47.102 l 0,0 c 0,0 -35.718,-23.04 -51.948,-15.909 l 0,0 c -16.232,7.13 -19.951,50.533 -19.951,50.533 l 0,0 c 0,0 -2.718,-43.232 -19.947,-50.533"
         inkscape:connector-curvature="0" /></clipPath><radialGradient
       id="radialGradient40"
       spreadMethod="pad"
       gradientTransform="matrix(89.254456,0,0,-89.254456,370.9502,322.4375)"
       gradientUnits="userSpaceOnUse"
       r="1"
       cy="0"
       cx="0"
       fy="0"
       fx="0"><stop
         id="stop36"
         offset="0"
         style="stop-opacity:1;stop-color:#fdbe10" /><stop
         id="stop38"
         offset="1"
         style="stop-opacity:1;stop-color:#f16422" /></radialGradient></defs><g
     transform="matrix(1.3333333,0,0,-1.3333333,-294.96293,630.13412)"
     id="g10"><g
       id="g12"><g
         clip-path="url(#clipPath18)"
         id="g14"><g
           transform="translate(370.9482,472.6006)"
           id="g20"><path
             id="path22"
             style="fill:#fdbe10;fill-opacity:1;fill-rule:nonzero;stroke:none"
             d="m 0,0 c 0,0 6.213,-72.485 33.318,-84.392 27.104,-11.905 86.753,26.569 86.753,26.569 0,0 -48.228,-49.006 -45.209,-78.665 3.022,-29.661 74.864,-51.262 74.864,-51.262 0,0 -72.61,3.382 -89.688,-13.703 -17.078,-17.084 6.597,-90.49 6.597,-90.49 0,0 -43.237,60.579 -66.635,61.578 -23.4,1.003 -66.633,-61.578 -66.633,-61.578 0,0 10.826,67.062 6.601,90.49 -4.229,23.431 -89.694,13.703 -89.694,13.703 0,0 68.108,28.882 74.865,51.262 6.757,22.378 -45.21,78.665 -45.21,78.665 0,0 57.978,-38.76 86.757,-26.569 C -4.54,-72.2 0,0 0,0"
             inkscape:connector-curvature="0" /></g></g></g><g
       id="g24"><g
         clip-path="url(#clipPath30)"
         id="g26"><g
           id="g32"><g
             id="g34"><path
               id="path42"
               style="fill:url(#radialGradient40);stroke:none"
               d="m 351.001,359.31 c -17.234,-7.3 -51.945,15.909 -51.945,15.909 l 0,0 c 0,0 31.115,-33.702 27.068,-47.102 l 0,0 c -4.048,-13.401 -44.827,-30.694 -44.827,-30.694 l 0,0 c 0,0 51.173,5.823 53.705,-8.205 l 0,0 c 2.528,-14.031 -3.951,-54.186 -3.951,-54.186 l 0,0 c 0,0 25.887,37.471 39.897,36.872 l 0,0 c 14.012,-0.597 39.902,-36.872 39.902,-36.872 l 0,0 c 0,0 -14.178,43.955 -3.952,54.186 l 0,0 c 10.225,10.229 53.706,8.205 53.706,8.205 l 0,0 c 0,0 -43.02,12.932 -44.827,30.694 l 0,0 c -1.81,17.759 27.07,47.102 27.07,47.102 l 0,0 c 0,0 -35.718,-23.04 -51.948,-15.909 l 0,0 c -16.232,7.13 -19.951,50.533 -19.951,50.533 l 0,0 c 0,0 -2.718,-43.232 -19.947,-50.533"
               inkscape:connector-curvature="0" /></g></g></g></g></g></svg>